<svg id="Слой_1" data-name="Слой 1" xmlns="http://www.w3.org/2000/svg" viewBox="0 0 180.67 98.61"><defs><style>.cls-1{fill:#222323;}.cls-2{fill:#d8d8d8;}</style></defs><path class="cls-1" d="M393.21,387.06H240.08a9,9,0,0,0-9,9v24.13h-8a1.6,1.6,0,0,0-1.6,1.6v29.15a1.6,1.6,0,0,0,1.6,1.6h8v24.13a9,9,0,0,0,9,9H393.21a9,9,0,0,0,9-9V396.06A9,9,0,0,0,393.21,387.06Z" transform="translate(-221.53 -387.06)"/><path class="cls-2" d="M308.06,448.6c0-.94,0-1.64,0-2.11a19.73,19.73,0,0,1,1.17-7.15,16.44,16.44,0,0,1,2.78-4.57,51.36,51.36,0,0,1,5.06-4.9,23.91,23.91,0,0,0,4.74-5.14,8.26,8.26,0,0,0,1.1-4.18,9.73,9.73,0,0,0-3.21-7.2,10.84,10.84,0,0,0-7.85-3.11,10.59,10.59,0,0,0-7.5,2.81q-3,2.82-3.94,8.79l-7.23-.86q1-8,5.8-12.26t12.75-4.26q8.4,0,13.4,4.57a14.45,14.45,0,0,1,5,11.06,13.93,13.93,0,0,1-1.76,6.91q-1.75,3.17-6.87,7.69a34.71,34.71,0,0,0-4.49,4.5,9.89,9.89,0,0,0-1.57,3.32,28.3,28.3,0,0,0-.58,6.09Zm-.43,14.1v-8h8v8Z" transform="translate(-221.53 -387.06)"/></svg>