<svg id="Слой_1" data-name="Слой 1" xmlns="http://www.w3.org/2000/svg" viewBox="0 0 180.67 98.61"><defs><style>.cls-1{fill:#222323;}.cls-2{fill:#ceb889;}</style></defs><path class="cls-1" d="M379.34,371.2H226.21a9,9,0,0,0-9,9v24.13h-8a1.6,1.6,0,0,0-1.6,1.59v29.16a1.6,1.6,0,0,0,1.6,1.59h8V460.8a9,9,0,0,0,9,9H379.34a9,9,0,0,0,9-9V380.2A9,9,0,0,0,379.34,371.2Z" transform="translate(-207.66 -371.2)"/><path class="cls-2" d="M314.52,379.33H233.38a7.55,7.55,0,0,0-7.56,7.56V455a7.55,7.55,0,0,0,7.56,7.56h109Z" transform="translate(-207.66 -371.2)"/></svg>