<svg id="Слой_1" data-name="Слой 1" xmlns="http://www.w3.org/2000/svg" viewBox="0 0 119.5 119.5"><defs><style>.cls-1{fill:#1d1d1b;}</style></defs><path class="cls-1" d="M333,374.5a7.5,7.5,0,0,1-7.5-7.5A96.61,96.61,0,0,0,229,270.5a7.5,7.5,0,0,1,0-15A111.63,111.63,0,0,1,340.5,367,7.5,7.5,0,0,1,333,374.5Z" transform="translate(-221 -255.5)"/><path class="cls-1" d="M302,374.5a7.5,7.5,0,0,1-7.5-7.5A65.57,65.57,0,0,0,229,301.5a7.5,7.5,0,0,1,0-15A80.59,80.59,0,0,1,309.5,367,7.5,7.5,0,0,1,302,374.5Z" transform="translate(-221 -255.5)"/><path class="cls-1" d="M271,374.5a7.5,7.5,0,0,1-7.5-7.5A34.54,34.54,0,0,0,229,332.5a7.5,7.5,0,0,1,0-15A49.56,49.56,0,0,1,278.5,367,7.5,7.5,0,0,1,271,374.5Z" transform="translate(-221 -255.5)"/><circle class="cls-1" cx="13" cy="106.5" r="13"/></svg>